<?xml version="1.0" encoding="utf-8"?>
<!-- Generator: Adobe Illustrator 16.0.0, SVG Export Plug-In . SVG Version: 6.00 Build 0)  -->
<!DOCTYPE svg PUBLIC "-//W3C//DTD SVG 1.1//EN" "http://www.w3.org/Graphics/SVG/1.1/DTD/svg11.dtd">
<svg version="1.1" id="图层_1" xmlns="http://www.w3.org/2000/svg" xmlns:xlink="http://www.w3.org/1999/xlink" x="0px" y="0px"
	 width="800px" height="800px" viewBox="0 0 800 800" enable-background="new 0 0 800 800" xml:space="preserve">
<g>
	<path fill="none" stroke="#231815" stroke-width="40" stroke-miterlimit="10" d="M509.562,293.298
		c0,92.646-75.113,167.814-167.782,167.814c-92.729,0-167.842-75.17-167.842-167.814c0-92.696,75.11-167.871,167.842-167.871
		C434.448,125.427,509.562,200.602,509.562,293.298z"/>
	<path fill="none" stroke="#231815" stroke-width="40" stroke-miterlimit="10" d="M445.219,475.683
		c0-48.235,39.064-87.304,87.244-87.304c48.205,0,87.273,39.067,87.273,87.304c0,48.181-39.068,87.244-87.273,87.244
		C484.284,562.927,445.219,523.863,445.219,475.683z"/>
	<path fill="none" stroke="#231815" stroke-width="40" stroke-miterlimit="10" d="M249.455,293.298
		c0-50.963,41.332-92.351,92.324-92.351c50.963,0,92.264,41.388,92.264,92.351c0,50.967-41.301,92.239-92.264,92.239
		C290.787,385.538,249.455,344.265,249.455,293.298z"/>
</g>
<text transform="matrix(1 0 0 1 150.0002 694.1729)" fill="#231815" font-family="'Klavika-Regular'" font-size="89.1598">ZHISHAN-IoT</text>
<text transform="matrix(1 0 0 1 150.0002 694.1729)" fill="none" stroke="#231815" stroke-width="6" stroke-miterlimit="10" font-family="'Klavika-Regular'" font-size="89.1598">ZHISHAN-IoT</text>
</svg>
